<svg width="24" height="24" viewBox="0 0 24 24" fill="none" xmlns="http://www.w3.org/2000/svg">
<path d="M18.281 8.57211C18.101 6.90111 17.355 5.44011 16.176 4.39911C15.0221 3.38331 13.5373 2.82331 12 2.82411C10.462 2.82411 8.974 3.38411 7.824 4.39911C6.646 5.44011 5.9 6.90111 5.72 8.57211C6.04481 8.50559 6.37545 8.47176 6.707 8.47111C7.61406 8.4703 8.50101 8.73844 9.2557 9.24163C10.0104 9.74482 10.599 10.4605 10.947 11.2981L13.054 11.2961C13.4005 10.4574 13.9889 9.74075 14.7442 9.23764C15.4995 8.73453 16.3875 8.46768 17.295 8.47111C17.6266 8.47116 17.9563 8.505 18.281 8.57211ZM3.624 16.4941L1.412 22.5881H0L2.662 15.2641C2.48641 14.933 2.35175 14.5817 2.261 14.2181C2.16629 13.8387 2.11827 13.4492 2.118 13.0581C2.11257 12.2607 2.3101 11.4751 2.692 10.7751C3.06537 10.0999 3.60863 9.53385 4.268 9.13311C4.348 6.92611 5.211 4.95511 6.698 3.54011C8.12706 2.17712 10.0252 1.41529 12 1.41211C13.973 1.41211 15.876 2.18011 17.305 3.54211C18.791 4.95911 19.653 6.93011 19.732 9.13811C20.3914 9.53793 20.9347 10.1033 21.308 10.7781C21.691 11.4711 21.884 12.2561 21.882 13.0581C21.882 13.4481 21.835 13.8381 21.74 14.2171C21.649 14.5791 21.515 14.9301 21.338 15.2621L24 22.5881H22.588L20.376 16.4911C19.966 16.8581 19.497 17.1401 18.993 17.3341C18.4512 17.5436 17.8749 17.6497 17.294 17.6471C16.1332 17.6447 15.0155 17.2069 14.162 16.4201C13.335 15.6551 12.818 14.6061 12.719 13.4121H11.28C11.177 14.6041 10.66 15.6531 9.833 16.4171C8.98085 17.2039 7.8648 17.6427 6.705 17.6471C6.1246 17.6508 5.54865 17.5456 5.007 17.3371C4.49859 17.1419 4.0297 16.8563 3.623 16.4941H3.624ZM14.824 13.0491C14.8216 13.3762 14.8844 13.7005 15.0087 14.0031C15.1331 14.3057 15.3165 14.5804 15.5482 14.8113C15.7799 15.0422 16.0553 15.2246 16.3583 15.3478C16.6614 15.4711 16.9859 15.5327 17.313 15.5291C17.9681 15.5266 18.5953 15.2639 19.0568 14.7989C19.5182 14.3339 19.776 13.7047 19.7735 13.0496C19.771 12.3945 19.5083 11.7673 19.0433 11.3058C18.5783 10.8444 17.9491 10.5866 17.294 10.5891C16.9703 10.5883 16.6495 10.6513 16.3501 10.7746C16.0508 10.8978 15.7786 11.0788 15.5492 11.3073C15.3198 11.5357 15.1377 11.8071 15.0133 12.106C14.8888 12.4049 14.8245 12.7254 14.824 13.0491ZM4.235 13.0591C4.23408 13.3837 4.29733 13.7053 4.42114 14.0054C4.54494 14.3055 4.72684 14.5782 4.95639 14.8077C5.18593 15.0373 5.45859 15.2192 5.75868 15.343C6.05877 15.4668 6.38038 15.53 6.705 15.5291C7.02957 15.5295 7.35103 15.4659 7.651 15.3419C7.95096 15.218 8.22354 15.0361 8.45314 14.8067C8.68274 14.5773 8.86485 14.3048 8.98906 14.005C9.11327 13.7051 9.17713 13.3837 9.177 13.0591C9.17713 12.7346 9.1133 12.4133 8.98915 12.1135C8.86501 11.8137 8.68299 11.5413 8.45349 11.3119C8.224 11.0825 7.95154 10.9006 7.65169 10.7766C7.35184 10.6525 7.03049 10.5888 6.706 10.5891C6.38138 10.5882 6.05977 10.6514 5.75968 10.7752C5.45959 10.899 5.18693 11.081 4.95739 11.3105C4.72784 11.54 4.54594 11.8127 4.42214 12.1128C4.29833 12.4129 4.23408 12.7345 4.235 13.0591ZM9.882 19.0591C9.915 18.6361 10.209 18.3561 10.588 18.3531C10.6817 18.3496 10.775 18.3655 10.8623 18.3997C10.9495 18.4339 11.0287 18.4858 11.095 18.5521C11.1613 18.6184 11.2132 18.6976 11.2474 18.7848C11.2816 18.8721 11.2975 18.9655 11.294 19.0591V21.8821C11.2975 21.9758 11.2816 22.0691 11.2474 22.1564C11.2132 22.2436 11.1613 22.3229 11.095 22.3891C11.0287 22.4554 10.9495 22.5073 10.8623 22.5415C10.775 22.5758 10.6817 22.5916 10.588 22.5881C10.208 22.5851 9.915 22.3051 9.882 21.8821V19.0591ZM12.706 19.0591C12.739 18.6361 13.032 18.3561 13.412 18.3531C13.5057 18.3496 13.599 18.3655 13.6863 18.3997C13.7735 18.4339 13.8527 18.4858 13.919 18.5521C13.9853 18.6184 14.0372 18.6976 14.0714 18.7848C14.1056 18.8721 14.1215 18.9655 14.118 19.0591V21.8821C14.1215 21.9758 14.1056 22.0691 14.0714 22.1564C14.0372 22.2436 13.9853 22.3229 13.919 22.3891C13.8527 22.4554 13.7735 22.5073 13.6863 22.5415C13.599 22.5758 13.5057 22.5916 13.412 22.5881C13.032 22.5851 12.739 22.3051 12.706 21.8821V19.0591ZM15.529 20.4711C15.562 20.0481 15.856 19.7681 16.235 19.7651C16.3287 19.7616 16.422 19.7775 16.5093 19.8117C16.5965 19.8459 16.6757 19.8978 16.742 19.9641C16.8083 20.0304 16.8602 20.1096 16.8944 20.1968C16.9286 20.2841 16.9445 20.3775 16.941 20.4711V21.8821C16.9445 21.9758 16.9286 22.0691 16.8944 22.1564C16.8602 22.2436 16.8083 22.3229 16.742 22.3891C16.6757 22.4554 16.5965 22.5073 16.5093 22.5415C16.422 22.5758 16.3287 22.5916 16.235 22.5881C15.855 22.5851 15.562 22.3051 15.529 21.8821V20.4711ZM7.059 20.4711C7.092 20.0481 7.385 19.7681 7.765 19.7651C7.85865 19.7616 7.95203 19.7775 8.03927 19.8117C8.12651 19.8459 8.20575 19.8978 8.27202 19.9641C8.33829 20.0304 8.39017 20.1096 8.4244 20.1968C8.45864 20.2841 8.47451 20.3775 8.471 20.4711V21.8821C8.47451 21.9758 8.45864 22.0691 8.4244 22.1564C8.39017 22.2436 8.33829 22.3229 8.27202 22.3891C8.20575 22.4554 8.12651 22.5073 8.03927 22.5415C7.95203 22.5758 7.85865 22.5916 7.765 22.5881C7.385 22.5851 7.092 22.3051 7.059 21.8821V20.4711Z" fill="white"/>
</svg>
