<svg width="42" height="49" viewBox="0 0 42 49" fill="none" xmlns="http://www.w3.org/2000/svg">
<path d="M24.4361 0C10.9334 0 0 10.9703 0 24.5C0 38.0297 10.9334 49 24.4361 49C31.0618 49 37.0642 46.3531 41.4703 42.0656C42.017 41.5297 42.1591 40.6984 41.8093 40.0203C41.4594 39.3422 40.705 38.9594 39.9506 39.0906C38.8791 39.2766 37.7858 39.375 36.6596 39.375C26.0652 39.375 17.4716 30.7563 17.4716 20.125C17.4716 12.9281 21.4076 6.66094 27.2351 3.35781C27.902 2.975 28.2409 2.20938 28.0769 1.46563C27.9129 0.721875 27.2788 0.164063 26.5135 0.0984377C25.8247 0.0437502 25.1359 0.0109373 24.4361 0.0109373V0Z" fill="#7B7B7B"/>
</svg>
