<svg width="298" height="298" viewBox="0 0 298 298" fill="none" xmlns="http://www.w3.org/2000/svg">
<path d="M143.4 14.5689C145.371 9.43943 152.629 9.43944 154.6 14.5689L176.441 71.3841C177.673 74.5902 181.341 76.1093 184.479 74.7137L240.097 49.9828C245.118 47.75 250.25 52.8816 248.017 57.903L223.286 113.521C221.891 116.659 223.41 120.327 226.616 121.559L283.431 143.4C288.561 145.371 288.561 152.629 283.431 154.6L226.616 176.441C223.41 177.673 221.891 181.341 223.286 184.479L248.017 240.097C250.25 245.118 245.118 250.25 240.097 248.017L184.479 223.286C181.341 221.891 177.673 223.41 176.441 226.616L154.6 283.431C152.629 288.561 145.371 288.561 143.4 283.431L121.559 226.616C120.327 223.41 116.659 221.891 113.521 223.286L57.903 248.017C52.8816 250.25 47.75 245.118 49.9828 240.097L74.7137 184.479C76.1093 181.341 74.5902 177.673 71.3841 176.441L14.5689 154.6C9.43943 152.629 9.43944 145.371 14.5689 143.4L71.3841 121.559C74.5902 120.327 76.1093 116.659 74.7137 113.521L49.9828 57.903C47.75 52.8816 52.8816 47.75 57.903 49.9828L113.521 74.7137C116.659 76.1093 120.327 74.5902 121.559 71.3841L143.4 14.5689Z" fill="white"/>
<circle cx="148.5" cy="148.5" r="47.5" fill="white"/>
<circle cx="148.5" cy="148.5" r="55" stroke="black" stroke-opacity="0.87" stroke-width="15"/>
</svg>
